<svg width="18" height="24" viewBox="0 0 18 24" fill="none" xmlns="http://www.w3.org/2000/svg">
<path d="M5 1C5 0.448 5.448 0 6 0H12C12.552 0 13 0.448 13 1C13 1.552 12.552 2 12 2H6C5.448 2 5 1.552 5 1ZM17.759 20.498L14.016 12.642C12.975 10.456 12 8.061 12 5.635V4H10V6C10.09 8.711 11.164 11.305 12.21 13.502L15.953 21.356C16.096 21.658 15.885 22 15.577 22H16.877L12.5 13H6.021C6.903 11.092 7.907 8.623 7.994 6L8 4H6V5.635C6 8.061 5.025 10.455 3.984 12.641L0.241 20.497C0.0759999 20.845 0 21.205 0 21.555C0 22.838 1.023 24 2.423 24H15.577C16.977 24 18 22.838 18 21.554C18 21.204 17.924 20.845 17.759 20.498Z" fill="white"/>
</svg>
