<svg width="33" height="21" viewBox="0 0 33 21" fill="none" xmlns="http://www.w3.org/2000/svg">
<path fill-rule="evenodd" clip-rule="evenodd" d="M24.6945 17.8651C24.6945 18.5243 24.7841 19.2632 25.0668 20H10C10 19.8119 9.99897 19.6296 9.99797 19.4529L9.99796 19.4519C9.98433 17.0512 9.97663 15.6965 12.644 15.08C15.51 14.418 17.183 13.839 15.89 11.398C11.958 3.971 14.848 0 19.001 0C23.236 0 26.055 4.124 22.111 11.398C20.779 13.853 22.548 14.432 25.353 15.08L25.3568 15.0809C25.2697 15.2402 25.1921 15.4017 25.1232 15.564L25.1133 15.5873L25.1038 15.6108C24.7859 16.3934 24.6945 17.1822 24.6945 17.8651ZM0 20H7.809C7.78999 15.5587 8.80528 14.3746 9.73692 13.288C10.5205 12.3741 11.245 11.5291 11.245 8.873C11.245 6.362 9.606 5 7.497 5C4.382 5 2.215 7.979 5.164 13.549C6.12085 15.356 4.18269 15.8029 2.06381 16.2914L1.983 16.31C0.120998 16.74 0 17.65 0 19.227V20ZM28.7032 13.4922H31.8231L32.4752 1H28.0511L28.7032 13.4922ZM28.1662 16.855C28.0554 17.1277 28 17.4644 28 17.8651C28 18.2487 28.0554 18.5769 28.1662 18.8496C28.2856 19.1224 28.4475 19.3483 28.6521 19.5273C28.8567 19.7063 29.0954 19.8342 29.3681 19.9109C29.6409 19.9961 29.935 20.0387 30.2504 20.0387C30.5487 20.0387 30.83 19.9961 31.0943 19.9109C31.3671 19.8342 31.6057 19.7063 31.8103 19.5273C32.0149 19.3483 32.1768 19.1224 32.2962 18.8496C32.4155 18.5769 32.4752 18.2487 32.4752 17.8651C32.4752 17.4644 32.4155 17.1277 32.2962 16.855C32.1768 16.5737 32.0149 16.3478 31.8103 16.1773C31.6057 16.0068 31.3671 15.8832 31.0943 15.8065C30.83 15.7298 30.5487 15.6914 30.2504 15.6914C29.935 15.6914 29.6409 15.7298 29.3681 15.8065C29.0954 15.8832 28.8567 16.0068 28.6521 16.1773C28.4475 16.3478 28.2856 16.5737 28.1662 16.855Z" fill="white"/>
</svg>
